<svg xmlns="http://www.w3.org/2000/svg" viewBox="0 0 64 64">
  <rect width="64" height="64" rx="16" fill="#F7931A"/>
  <path fill="#fff" d="M39.8 19.7c-1.1-4.3-5.3-5.1-10.6-4.1l-1.1-4.5-2.8.7 1.1 4.4-2.2.6-1.1-4.4-2.8.7 1.1 4.5-5.6 1.4.8 3.1 2.1-.5c1.2-.3 1.8.2 2.1 1l3.1 12.5c.1.8-.2 1.5-1.1 1.7l-2.1.5.4 3.7 5.7-1.4 1.1 4.6 2.8-.7-1.1-4.5 2.2-.5 1.1 4.4 2.8-.7-1.1-4.6c6.7-1.9 10.7-4.7 9.7-10.1-.8-4.3-4-5.5-7.9-5.4 2.6-1.5 4-3.6 3.4-6.4Zm-2 9.1c.9 3.8-5.1 5.1-7.1 5.6l-1.5-6.1c2-.5 7.7-1.5 8.6.5Zm-3.6-9c.8 3.4-4.3 4.5-6 4.9l-1.4-5.5c1.7-.4 6.6-1.5 7.4.6Z"/>
</svg>
